<svg width="26" height="31" viewBox="0 0 26 31" fill="none" xmlns="http://www.w3.org/2000/svg">
<path d="M19.7108 29.153C20.7218 29.153 20.5774 30.3963 20.5774 30.3963H7.43517C7.43517 30.3963 7.29075 29.153 8.30169 29.153C9.24042 29.153 9.45705 28.7142 9.45705 28.2755L9.38484 24.6189C4.25794 25.789 3.17479 22.5712 3.17479 22.5712C2.30827 20.3773 1.15292 19.8653 1.15292 19.8653C-0.58012 18.6952 1.22513 18.6952 1.22513 18.6952C3.10258 18.8415 4.11352 20.5966 4.11352 20.5966C5.70214 23.4488 8.3739 22.6443 9.45705 22.2055C9.60147 20.9623 10.1069 20.1579 10.6124 19.6459C6.49644 19.2071 2.23606 17.5983 2.23606 10.4314C2.23606 8.38369 2.95816 6.70166 4.11352 5.3853C3.89689 4.94651 3.31921 3.04509 4.33015 0.485485C4.33015 0.485485 5.84655 -0.0264353 9.38484 2.3869C12.4176 1.50933 15.5949 1.50933 18.6277 2.3869C22.166 -0.0264353 23.6824 0.485485 23.6824 0.485485C24.6933 3.04509 24.1156 4.94651 23.899 5.3853C25.0544 6.70166 25.7765 8.38369 25.7765 10.4314C25.7765 17.5983 21.4439 19.2071 17.3279 19.6459C18.05 20.231 18.6277 21.4011 18.6277 23.1562L18.5555 28.2755C18.5555 28.7142 18.7721 29.153 19.7108 29.153Z" fill="white"/>
</svg>
