<svg width="50" height="50" viewBox="0 0 50 50" fill="none" xmlns="http://www.w3.org/2000/svg">
<path d="M42.5 0H7.5C3.35786 0 0 3.35786 0 7.5V42.5C0 46.6421 3.35786 50 7.5 50H42.5C46.6421 50 50 46.6421 50 42.5V7.5C50 3.35786 46.6421 0 42.5 0Z" fill="white"/>
<path d="M15.4297 38.1836V24.3164L7.42188 18.1641V35.2539C7.42188 37.207 8.39844 38.1836 10.3516 38.1836" fill="#4285F4"/>
<path d="M15.0391 24.2188L25 31.7383L34.9609 24.2188V14.6485L25 22.168L15.0391 14.6485" fill="#EA4335"/>
<path d="M34.5703 38.1836V24.3164L42.5782 18.1641V35.2539C42.5782 37.207 41.6016 38.1836 39.6485 38.1836" fill="#34A853"/>
<path d="M7.42188 18.3594L15.4297 24.5117V14.9414L12.5 12.6953C9.86328 10.6445 7.42188 12.6953 7.42188 15.2344" fill="#C5221F"/>
<path d="M42.5782 18.3594L34.5703 24.5117V14.9414L37.5 12.6953C40.1367 10.6445 42.5782 12.6953 42.5782 15.2344" fill="#FBBC04"/>
</svg>
