<svg width="50" height="50" viewBox="0 0 50 50" fill="none" xmlns="http://www.w3.org/2000/svg">
<path d="M46.3111 0.000189343H3.6885C2.72142 -0.00965272 1.78993 0.364549 1.09843 1.04069C0.406927 1.71682 0.0118898 2.63966 0 3.60672V46.4015C0.01404 47.3671 0.410022 48.2878 1.10129 48.9622C1.79256 49.6366 2.72282 50.0097 3.6885 49.9998H46.3111C47.2783 50.0075 48.2091 49.632 48.9003 48.9555C49.5914 48.2789 49.9867 47.3563 49.9996 46.3892V3.59442C49.9824 2.63021 49.5852 1.71176 48.8946 1.03873C48.2039 0.365697 47.2755 -0.00752439 46.3111 0.000189343Z" fill="#0076B2"/>
<path d="M7.40159 18.7418H14.8237V42.6228H7.40159V18.7418ZM11.1147 6.85669C11.966 6.85669 12.7981 7.10917 13.5059 7.5822C14.2136 8.05523 14.7652 8.72755 15.0908 9.5141C15.4163 10.3007 15.5013 11.1661 15.3349 12.001C15.1686 12.8358 14.7583 13.6026 14.1561 14.2042C13.5539 14.8059 12.7867 15.2154 11.9517 15.381C11.1167 15.5466 10.2513 15.4608 9.46506 15.1344C8.67881 14.8081 8.00702 14.2559 7.53467 13.5477C7.06231 12.8395 6.81062 12.0071 6.81143 11.1558C6.81252 10.0153 7.26638 8.92176 8.07327 8.11563C8.88017 7.3095 9.9741 6.85669 11.1147 6.85669Z" fill="white"/>
<path d="M19.4794 18.7419H26.5941V22.0206H26.6924C27.6842 20.1435 30.1022 18.164 33.7129 18.164C41.2292 18.1476 42.6226 23.0943 42.6226 29.5082V42.6229H35.2006V31.0041C35.2006 28.2377 35.1514 24.6763 31.344 24.6763C27.5367 24.6763 26.8892 27.6927 26.8892 30.8238V42.6229H19.4794V18.7419Z" fill="white"/>
</svg>
